HIERARCHY
ROOT hip
{
	OFFSET 0.000000 0.000000 0.000000 
	CHANNELS 6 Xposition Yposition Zposition Xrotation Zrotation Yrotation
	JOINT abdomen
	{
		OFFSET 0.000000 3.402643 0.000000 
		CHANNELS 3 Xrotation Zrotation Yrotation
		JOINT chest
		{
			OFFSET 0.000000 8.438565 -0.680529 
			CHANNELS 3 Xrotation Zrotation Yrotation
			JOINT neck
			{
				OFFSET 0.000000 10.207942 -0.272212 
				CHANNELS 3 Xrotation Zrotation Yrotation
				JOINT head
				{
					OFFSET 0.000000 3.130431 0.000000 
					CHANNELS 3 Xrotation Zrotation Yrotation
					End Site
					{
						OFFSET 0.000000 3.130435 0.000000 
					}
				}
			}
			JOINT lCollar
			{
				OFFSET 3.470700 6.669187 -0.816635 
				CHANNELS 3 Yrotation Zrotation Xrotation
				JOINT lShldr
				{
					OFFSET 3.198488 0.000000 0.000000 
					CHANNELS 3 Zrotation Yrotation Xrotation
					JOINT lForeArm
					{
						OFFSET 10.139888 0.000000 0.000000 
						CHANNELS 3 Yrotation Zrotation Xrotation
						JOINT lHand
						{
							OFFSET 8.370511 0.000000 0.000000 
							CHANNELS 3 Zrotation Yrotation Xrotation
							End Site
							{
								OFFSET 4.083176 0.000000 0.000000 
							}
						}
					}
				}
			}
			JOINT rCollar
			{
				OFFSET -3.470700 6.669187 -0.816635 
				CHANNELS 3 Yrotation Zrotation Xrotation
				JOINT rShldr
				{
					OFFSET -3.198488 0.000000 0.000000 
					CHANNELS 3 Zrotation Yrotation Xrotation
					JOINT rForeArm
					{
						OFFSET -10.139888 0.000000 0.000000 
						CHANNELS 3 Yrotation Zrotation Xrotation
						JOINT rHand
						{
							OFFSET -8.370511 0.000000 0.000000 
							CHANNELS 3 Zrotation Yrotation Xrotation
							End Site
							{
								OFFSET -4.083176 0.000000 0.000000 
							}
						}
					}
				}
			}
		}
	}
	JOINT lThigh
	{
		OFFSET 5.308129 -1.633274 1.361059 
		CHANNELS 3 Xrotation Zrotation Yrotation
		JOINT lShin
		{
			OFFSET -2.041588 -20.007561 0.000000 
			CHANNELS 3 Xrotation Zrotation Yrotation
			JOINT lFoot
			{
				OFFSET 0.000000 -19.190928 -1.224953 
				CHANNELS 3 Xrotation Yrotation Zrotation
				End Site
				{
					OFFSET 0.000000 -2.449906 4.627600 
				}
			}
		}
	}
	JOINT rThigh
	{
		OFFSET -5.308129 -1.633274 1.361059 
		CHANNELS 3 Xrotation Zrotation Yrotation
		JOINT rShin
		{
			OFFSET 2.041588 -20.007561 0.000000 
			CHANNELS 3 Xrotation Zrotation Yrotation
			JOINT rFoot
			{
				OFFSET 0.000000 -19.190928 -1.224953 
				CHANNELS 3 Xrotation Yrotation Zrotation
				End Site
				{
					OFFSET 0.000000 -2.449906 4.627600 
				}
			}
		}
	}
}
MOTION
Frames: 13
Frame Time: 0.033333
9.981679 45.263847 -15.497657 -5.283204 -17.763672 109.853516 10.400391 6.220703 9.472656 -34.267578 4.003906 8.740233 -36.113281 7.773438 -1.503906 8.300781 1.074219 3.046875 19.023438 6.298829 0.184475 -45.556641 29.306641 -34.726559 -17.431641 -2.666016 -19.140169 -11.542970 -7.617188 1.552734 -17.812502 -9.804688 0.302734 4.257813 -14.296875 -50.292969 26.943359 3.525391 -44.375603 5.234375 10.927734 1.230469 -35.056282 3.837727 8.674247 45.802052 -0.732676 -2.626998 -29.334917 7.362830 -0.821374 -21.970097 -26.001602 -10.235163 58.069477 -0.711222 3.239252 13.551453 -18.874655 9.020298 
10.181527 45.405029 -16.269743 -5.986328 -18.115234 108.219620 13.457031 7.109375 9.044178 -32.333984 8.056641 7.197265 -30.117186 10.400392 -3.367378 7.412108 2.128906 1.259766 18.164063 5.908203 0.224610 -57.431641 28.691404 -23.647655 -15.136719 -2.939453 -27.558094 -10.625000 -6.982422 1.337891 -17.490236 -9.414063 0.302734 9.521483 -11.972656 -50.771481 31.835936 3.632813 -57.412113 0.000000 12.626954 0.253906 -34.287716 4.498868 10.402862 45.610867 -0.588976 -2.753766 -29.358957 7.230211 -0.902266 -28.619776 -25.972898 -7.303337 63.513493 -0.888705 3.341687 15.523458 -20.297043 9.862937 
10.543185 45.778252 -16.987221 -6.865234 -18.115234 107.919922 16.230469 8.398438 8.038536 -30.224611 11.748047 5.478516 -23.066406 12.187498 -4.958876 6.708984 3.535156 -0.868538 16.787111 5.468750 0.135788 -66.171875 26.474609 2.431641 -16.728516 -3.242188 -36.005859 -9.716797 -6.503906 1.113281 -16.650391 -8.642578 0.322266 14.531251 -9.794922 -48.644234 37.167965 3.652344 -67.646477 -2.382813 15.966797 -0.253906 -33.257919 5.711368 12.168221 44.724579 -0.764884 -2.942865 -27.608656 5.867749 -2.174378 -34.628620 -25.488077 -7.252626 69.647522 -1.591859 3.304005 12.029838 -20.661402 8.517792 
11.050558 46.262966 -17.689669 -7.734374 -17.587891 108.922829 18.847656 10.185546 7.207032 -27.578125 14.912111 3.945312 -16.357422 13.437500 -6.503906 6.699219 5.117188 -3.143660 15.039063 5.068359 0.234371 -70.859375 22.089842 23.363049 -24.208984 -3.164063 -36.884228 -10.986328 -7.148438 1.356207 -15.849609 -7.304687 0.264914 18.906248 -7.314453 -47.919922 41.533207 3.681641 -74.063126 -2.626953 18.427734 -0.426601 -31.937422 5.232022 11.749157 43.502087 -0.705880 -2.683603 -24.306759 5.446841 -2.819217 -38.941833 -25.250959 -9.155291 73.319054 -1.757859 3.479158 6.436999 -18.646442 6.448403 
11.662026 46.761757 -18.415010 -7.910156 -16.884766 110.156250 21.455078 11.748047 6.494141 -25.097658 17.187500 2.929687 -11.054687 15.205080 -8.220095 6.699219 6.171875 -5.428638 12.910156 5.742188 0.262695 -72.314453 16.386719 34.446117 -35.498043 -3.085938 -31.327595 -11.660156 -9.785155 2.089844 -14.863280 -5.595703 0.127905 22.822264 -5.664063 -47.109371 44.628906 3.544922 -76.758415 -1.279297 19.306639 -0.019531 -30.686779 4.528858 11.162792 43.495708 -0.696316 -2.854150 -19.323338 5.259710 -3.342376 -42.083290 -24.877180 -11.816076 74.407341 -1.591899 3.290453 2.360700 -15.675406 5.075736 
12.348379 47.178856 -19.190199 -7.382812 -16.533201 110.680809 23.837891 12.695313 5.900583 -22.451174 18.769533 2.265625 -7.490234 16.435547 -10.104659 7.050782 7.050782 -7.528097 11.113280 7.324219 0.302734 -72.021484 11.718749 37.277374 -48.535156 -2.812500 -25.283205 -14.238280 -10.429687 2.713078 -13.662109 -4.306641 0.195312 26.943361 -4.111328 -44.971405 45.800781 3.662110 -75.332657 0.908203 19.980471 0.882245 -30.080986 4.294218 12.743665 44.731812 -0.947416 -3.014377 -12.468637 3.500553 -4.493752 -45.446068 -24.362452 -14.024599 72.123291 -1.249427 3.283480 -0.663796 -12.759125 4.493882 
13.125473 47.380020 -20.019163 -5.986328 -16.357422 110.153503 26.503904 12.978516 5.625000 -19.970703 19.990236 2.308026 -5.478516 16.455078 -11.699219 7.578125 8.105469 -9.267578 9.482422 9.414063 0.341797 -70.371094 9.648438 36.083984 -61.191406 -2.607422 -22.108931 -17.333984 -10.634766 3.367338 -12.441407 -4.091797 0.156250 31.347654 -2.500000 -42.675781 46.630859 3.544922 -72.001945 4.287109 18.105469 1.780380 -29.795771 4.331330 16.733189 47.001011 -0.423457 -2.929652 -4.928707 0.176815 -5.073341 -48.584232 -22.939850 -13.645498 66.868515 -1.074493 3.362981 -2.915329 -9.279013 4.192369 
14.028607 47.240627 -20.880680 -3.876953 -15.830078 108.808594 29.482422 12.812500 5.568368 -18.027344 20.341797 2.151832 -3.623047 15.644531 -12.802734 7.753907 8.984374 -10.662538 7.958984 12.060547 0.537110 -67.392578 10.224609 35.001736 -72.421875 -2.714844 -23.701174 -18.789061 -8.906250 3.084427 -10.498047 -4.951172 0.137562 37.021484 -2.197266 -39.082039 49.091793 3.750000 -67.011719 6.640625 16.406250 2.236328 -29.351208 5.251152 20.889803 50.539379 -0.570373 -2.986309 2.916230 -2.817796 -5.071830 -51.457394 -20.552132 -11.455244 60.360771 -0.712961 3.119793 -5.647488 -5.580936 3.896966 
15.073754 46.671848 -21.782028 -1.416016 -14.941406 107.038498 32.441406 12.382813 5.226704 -16.787111 20.156248 1.992188 -1.416016 13.808594 -13.513294 7.568360 10.214844 -11.892798 6.132813 14.306640 0.683594 -63.984379 13.261718 34.638668 -81.240234 -2.763672 -24.374998 -19.619141 -8.222656 2.958984 -8.183595 -6.708985 0.263672 43.291016 -3.222656 -35.527893 53.486332 3.662110 -61.035786 8.457032 15.400392 2.717438 -29.096657 6.070354 24.697079 55.628590 -0.081105 -3.162913 10.792239 -6.408371 -4.110671 -53.075699 -17.587692 -8.058505 54.231628 -0.212987 2.981030 -7.481845 -4.292345 4.588596 
16.273441 45.660206 -22.746328 1.054688 -13.359333 105.066063 35.576176 12.001952 4.718827 -16.083986 19.804688 1.650391 0.986328 11.083984 -14.275466 7.041016 11.445313 -13.308608 4.013672 15.830077 0.751953 -61.376953 18.427736 36.279301 -86.748047 -2.812500 -25.439455 -19.941406 -7.919922 2.812500 -5.683594 -8.613282 0.361328 49.560547 -4.990234 -32.353512 58.261719 3.662110 -55.751957 10.966797 14.326172 3.164063 -28.813065 7.162766 27.123459 62.098797 0.267476 -3.487892 18.153687 -10.609636 -2.182496 -54.021614 -14.218441 -2.701416 52.281353 -0.185635 2.878360 -6.200501 -7.020324 3.794474 
17.597973 44.368225 -23.783728 3.164063 -10.556643 103.494308 38.955078 12.431641 5.060697 -15.380858 18.925781 1.487542 3.203125 8.867188 -15.271933 6.152343 12.314453 -14.746092 2.646484 16.484375 0.712891 -60.322269 22.539063 39.042965 -88.574219 -2.910156 -27.187500 -21.103516 -6.699219 2.694173 -3.750000 -9.990234 0.392319 53.906246 -6.230469 -29.169924 62.226563 3.574219 -49.003906 12.177734 15.419922 3.596348 -28.628962 8.384625 26.908304 69.317543 0.579168 -3.626957 26.340523 -14.851190 1.291262 -55.820118 -10.205007 4.840938 58.431244 -0.711362 3.234556 -5.528231 -13.803908 3.175819 
18.863716 43.152916 -24.914013 4.570313 -8.095704 101.922455 42.011723 13.417969 6.017891 -14.853515 17.509768 1.487313 5.585938 8.046876 -16.609961 5.263672 12.314453 -16.394402 1.279297 16.982422 0.758866 -61.289063 25.732424 43.720699 -86.464844 -2.880859 -28.437502 -21.396484 -5.937500 2.373047 -1.669922 -9.248046 0.431257 55.527344 -7.675781 -27.042316 65.693359 3.417969 -43.975189 14.404297 14.960937 4.182209 -30.019068 9.091772 24.661011 75.806641 1.086606 -3.720893 34.928062 -20.046377 7.255464 -55.814156 -8.467075 10.086343 65.937004 -1.157077 3.631863 -8.383065 -14.486592 2.333965 
19.942133 42.249191 -26.139696 5.625000 -6.337891 99.998924 44.355469 14.287109 7.255858 -14.511719 16.279297 2.024222 8.466797 9.316406 -18.105469 4.736328 11.962891 -18.173828 -0.097656 17.314453 0.830078 -64.072266 28.105469 49.516319 -82.646484 -3.017578 -30.331522 -21.240234 -6.298828 2.362210 0.371094 -6.777344 0.235527 53.222656 -8.457032 -25.352999 68.457031 3.378906 -40.498623 16.367188 11.455077 3.730469 -32.239330 9.027460 22.533716 80.515877 1.602489 -4.044872 41.344345 -24.760714 13.780734 -55.847450 -9.150581 11.435297 70.699966 -1.607617 3.368491 -11.444973 -12.216146 2.292164 
